<svg width="500" height="500" viewBox="0 0 500 500" fill="none" xmlns="http://www.w3.org/2000/svg">
<rect width="500" height="500" fill="black"/>
<mask id="mask0_1508_1642" style="mask-type:luminance" maskUnits="userSpaceOnUse" x="50" y="50" width="400" height="400">
<path d="M450 50H50V450H450V50Z" fill="white"/>
</mask>
<g mask="url(#mask0_1508_1642)">
<path d="M267.44 77.939C259.533 78.8856 248.279 80.4801 234.876 83.2632C218.422 86.6798 210.198 88.3953 200.962 92.5163C192.844 96.1538 178.154 102.952 166.17 118.625C158.415 128.88 153.198 140.866 150.953 153.582C151.199 152.072 153.891 137.281 167.681 130.419C178.794 124.896 189.33 128.384 191.389 129.11L354.691 227.743C363.772 236.93 371.005 248.614 375.035 260.956C382.169 283.37 377.305 302.951 372.701 321.529C368.636 337.809 362.29 353.416 353.858 367.874C371.866 359.647 388.139 347.982 401.786 333.516C409.216 325.601 420.651 313.187 428.706 293.164C436.438 273.946 437.028 257.703 437.288 248.435C437.59 237.466 438.195 215.906 427.624 194.488C424.113 187.616 420.013 181.068 415.373 174.921C410.936 169.019 406.01 163.511 400.648 158.457C397.177 155.212 393.535 152.158 389.739 149.31C366.868 132.228 320.858 108.468 320.858 108.468C307.714 101.684 289.264 91.641 267.44 77.939Z" fill="url(#paint0_linear_1508_1642)"/>
<path d="M353.858 368.572C359.926 358.182 364.976 347.215 368.935 335.829C372.611 325.245 377.369 311.123 378.072 292.218C378.438 282.053 378.824 271.355 374.298 258.415C370.303 247.167 364.184 236.763 355.55 228.612C356.492 229.743 366.327 242.748 361.92 258.415C359.109 268.38 352.024 273.804 349.634 275.498L189.654 364.757C179.064 368.211 167.867 369.325 156.816 368.024C142.055 366.237 131.85 360.508 122.895 355.489C107.924 347.09 98.3791 337.694 90.5982 329.865C81.7895 321.036 73.8539 311.358 66.9045 300.966C65.9064 319.408 66.5179 358.13 89.7126 393.577C96.5056 404.052 104.796 413.449 114.313 421.458C140.179 442.813 167.302 446.465 172.454 447.082C187.275 448.77 202.278 447.473 216.602 443.27C222.794 441.559 230.083 438.997 247.43 430.1C270.624 418.17 285.546 408.155 299.674 399.606C321.533 386.36 340.236 375.932 353.858 368.572Z" fill="url(#paint1_linear_1508_1642)"/>
<path d="M66.9038 300.254C71.951 307.915 77.5294 315.203 83.597 322.063C92.3203 331.991 102.066 340.946 112.668 348.777C122.866 356.229 128.328 360.216 136.896 363.497C160.751 372.636 183.208 366.529 183.194 365.682C183.194 365.034 170.352 368.109 160.582 360.771C149.055 352.122 149.238 338.079 149.273 336.783C149.836 275.716 150.395 214.654 150.953 153.596C152.599 143.086 156.433 133.051 162.199 124.156C170.634 111.216 180.874 104.447 187.502 100.168C198.207 93.2501 207.274 90.3317 217.648 87.0786C233.379 82.1713 249.614 79.1048 266.034 77.9392C232.17 55.6885 197.792 49.5101 175.821 51.6028C148.648 54.1795 126.261 66.7996 126.261 66.7996L125.193 67.4046C116.899 72.2092 97.8863 83.5339 83.7235 107.208C73.8816 123.796 68.5153 142.711 68.1619 162.059C67.7121 185.377 66.461 197.257 67.0374 236.968C67.2834 251.888 67.4169 273.64 66.9038 300.254Z" fill="url(#paint2_linear_1508_1642)"/>
</g>
<defs>
<linearGradient id="paint0_linear_1508_1642" x1="145.358" y1="118.981" x2="387.086" y2="263.76" gradientUnits="userSpaceOnUse">
<stop stop-color="#231F20"/>
<stop offset="1" stop-color="white"/>
</linearGradient>
<linearGradient id="paint1_linear_1508_1642" x1="97.4513" y1="397.414" x2="384.949" y2="247.882" gradientUnits="userSpaceOnUse">
<stop stop-color="white"/>
<stop offset="1" stop-color="#231F20"/>
</linearGradient>
<linearGradient id="paint2_linear_1508_1642" x1="166.184" y1="80.4732" x2="166.991" y2="379.007" gradientUnits="userSpaceOnUse">
<stop stop-color="white"/>
<stop offset="1" stop-color="#231F20"/>
</linearGradient>
</defs>
</svg>
